<svg width="144" height="144" viewBox="48 48 48 48" fill="none" xmlns="http://www.w3.org/2000/svg">
  <style>
    path { fill: #000000; }
    @media (prefers-color-scheme: dark) {
      path { fill: #ffffff; }
    }
  </style>
  <path d="M96 48L90.6667 58.6667H90.6333V58.7333L88 64L85.3333 69.3333H85.3033V69.3933L82.6667 74.6667L80 80L79.9733 79.9467V80.0533L77.3333 85.3333L74.6667 90.6667H74.6467V90.7067L72 96L69.3333 90.6667L69.3167 90.6333L66.6667 85.3333L64 80L63.9867 79.9733L61.3333 74.6667L58.6667 69.3333L58.6567 69.3133L56 64L48 48H64L66.6667 53.3333L69.3167 58.6333V58.6667H69.3333L72 64L77.3333 53.3333L79.9733 48.0533L80 48H96Z"/>
</svg>
